PathFileType	4	(X/Y/Z)	C:\Users\Basilio\Documents\Thesis Gigler\squatting_fais\c3dfiles\075\SLS_front_pre2\markers_experimental.trc
DataRate	CameraRate	NumFrames	NumMarkers	Units	OrigDataRate	OrigDataStartFrame	OrigNumFrames
200.000000	200.000000	4	61	mm	200.000000	368	1473
Frame#	Time	FHD			LBHD			C7			T10			CLAV			LSHO			LUUPA			LMUPA			LDUPA			LLEP			LMEP			LRAD			LUL			LRFIN			RSHO			RUPA1			RMUPA			RDUPA			RLEP			RMEP			RRAD			RUL			RUFIN			RASI			USACR			LSACR			RSACR			LTHI1			LTHI2			LTHI3			LTHI4			LLFC			LMFC			LTIB1			LTIB2			LTIB3			LTIB4			LLMAL			LMMAL			LHEE			LMT1			LMT2			LMT5			RTHI			RTHI2			RTHI3			RTHI4			RLFC			RMFC			RTIB1			RTIB2			RTIB3			RTIB4			RLMAL			RMMAL			RHEE			RMT1			RMT2			RMT5			RBHD			LASI			
		X1	Y1	Z1	X2	Y2	Z2	X3	Y3	Z3	X4	Y4	Z4	X5	Y5	Z5	X6	Y6	Z6	X7	Y7	Z7	X8	Y8	Z8	X9	Y9	Z9	X10	Y10	Z10	X11	Y11	Z11	X12	Y12	Z12	X13	Y13	Z13	X14	Y14	Z14	X15	Y15	Z15	X16	Y16	Z16	X17	Y17	Z17	X18	Y18	Z18	X19	Y19	Z19	X20	Y20	Z20	X21	Y21	Z21	X22	Y22	Z22	X23	Y23	Z23	X24	Y24	Z24	X25	Y25	Z25	X26	Y26	Z26	X27	Y27	Z27	X28	Y28	Z28	X29	Y29	Z29	X30	Y30	Z30	X31	Y31	Z31	X32	Y32	Z32	X33	Y33	Z33	X34	Y34	Z34	X35	Y35	Z35	X36	Y36	Z36	X37	Y37	Z37	X38	Y38	Z38	X39	Y39	Z39	X40	Y40	Z40	X41	Y41	Z41	X42	Y42	Z42	X43	Y43	Z43	X44	Y44	Z44	X45	Y45	Z45	X46	Y46	Z46	X47	Y47	Z47	X48	Y48	Z48	X49	Y49	Z49	X50	Y50	Z50	X51	Y51	Z51	X52	Y52	Z52	X53	Y53	Z53	X54	Y54	Z54	X55	Y55	Z55	X56	Y56	Z56	X57	Y57	Z57	X58	Y58	Z58	X59	Y59	Z59	X60	Y60	Z60	X61	Y61	Z61	

369	1.84	-318.9396362304688	1695.304321289063	-761.4949340820314	-458.9300231933595	1571.01708984375	-830.9163818359377	-489.7865600585939	1455.62060546875	-773.7940673828127	-502.765106201172	1131.8896484375	-780.4561767578127	-344.2974243164063	1399.96533203125	-766.4735107421876	-372.4349670410157	1439.448852539063	-908.4838867187502	-223.2871856689454	1344.827392578125	-996.0791015625002	-194.3777465820313	1365.15576171875	-961.8851318359377	-155.6970520019532	1330.85009765625	-992.3726806640627	-75.17282867431642	1312.648315429688	-978.1656494140627	-103.1456527709961	1242.29052734375	-935.333435058594	nan	nan	nan	156.3893585205078	1303.836669921875	-864.9549560546877	163.9327850341797	1325.838012695313	-759.7604370117189	-386.8738403320314	1428.861083984375	-624.3905029296876	-246.150619506836	1330.321044921875	-523.2423095703126	-210.3613586425782	1349.834106445313	-550.9899902343751	-178.3243255615235	1313.10205078125	-514.5742797851564	-108.1323318481446	1301.441650390625	-519.2726440429689	-111.07275390625	1230.197387695313	-551.3743286132814	101.5960845947266	1317.734375	-704.9581909179689	125.1628952026367	1322.135620117188	-630.5215454101564	178.4272003173828	1345.366088867188	-733.2131958007814	-331.7030944824219	964.9299316406252	-664.5518188476564	-493.3543701171876	1024.5537109375	-791.3970336914065	-498.1715698242189	994.8274536132815	-821.2039794921877	-496.7179565429689	991.4068603515627	-763.7843017578126	-262.2395019531251	785.0977783203127	-1002.905456542969	-190.726791381836	741.8695678710939	-1000.765869140625	-159.749267578125	769.692565917969	-974.1442871093752	-179.8768157958985	682.6591796875001	-1000.055114746094	-126.5706329345703	586.6488037109376	-995.9575805664065	-92.7920608520508	584.2202148437501	-869.922790527344	-19.42640686035157	505.0243530273439	-965.327331542969	-51.83824920654298	445.7508239746095	-1019.711791992188	-14.37936210632325	457.1123657226564	-997.4709472656252	19.45156478881836	382.9808654785157	-972.0817871093752	19.86383628845215	221.6558074951172	-1001.831604003906	36.79412841796876	245.1028747558594	-917.8352661132815	-21.06281089782715	172.4176025390625	-961.7368774414065	178.3483123779297	221.8016357421876	-914.152770996094	186.3003387451172	225.0908966064454	-963.1316528320315	161.1001739501953	191.5489196777344	-1015.129943847656	-363.0904541015626	752.9892578125001	-615.5191040039064	-313.9177246093751	709.7439575195314	-616.0184936523439	-283.3028564453126	722.8214111328126	-621.8607788085939	-321.0393371582032	625.7080078125001	-631.6095581054689	-302.6672973632813	476.391571044922	-670.9951171875001	-255.4348602294922	485.3750000000001	-789.2431640625002	-262.3079528808594	336.8011474609376	-753.1227416992189	-327.6074523925782	261.1729125976563	-711.3988647460939	-289.7656860351563	254.4525756835938	-741.7022094726564	-306.0003967285157	219.0023956298829	-785.313903808594	-395.4858398437501	109.5497970581055	-770.708190917969	-357.2471618652344	139.6545867919922	-846.2568359375002	-446.0361938476564	94.53332519531251	-835.1735839843752	-241.6701812744141	57.04454803466798	-823.1235961914065	-247.0631103515626	54.42567825317384	-781.0549316406252	-289.9100646972657	33.50808715820313	-733.9721069335939	-423.9401855468751	1610.846923828125	-677.1709594726564	-332.1448974609376	983.9088134765627	-917.1568603515627	
370	1.845	-318.8124694824219	1695.00537109375	-761.6130371093751	-458.7245483398439	1570.75927734375	-830.9121704101565	-489.5648803710939	1455.1298828125	-773.862243652344	-502.9703369140626	1131.533325195313	-780.5325927734377	-344.1233215332032	1399.451171875	-766.4310913085939	-372.1725158691407	1438.984375	-908.4583740234377	-223.0107727050782	1344.450317382813	-995.9992675781252	-194.1912231445313	1364.788208007813	-961.7900390625002	-155.550048828125	1330.56494140625	-992.3754882812502	-74.85809326171876	1312.39306640625	-978.1416625976565	-102.8649139404297	1242.007934570313	-935.4153442382815	nan	nan	nan	156.6096954345703	1303.662719726563	-864.9072875976565	163.8282012939453	1326.0185546875	-759.5841064453126	-386.7130432128907	1428.45654296875	-624.4077758789064	-246.0598297119141	1330.053955078125	-523.1582641601564	-210.2331237792969	1349.48974609375	-551.0141601562501	-178.14794921875	1312.844604492188	-514.6084594726564	-108.0337677001953	1301.09765625	-519.2855834960939	-110.6652297973633	1230.107543945313	-551.3693237304689	101.7697448730469	1317.408081054688	-704.9465332031251	125.3149948120117	1321.97998046875	-630.4665527343751	178.6805572509766	1345.160400390625	-733.0075683593751	-332.1064147949219	964.4111328125002	-664.5942382812501	-493.6283569335939	1024.202880859375	-791.4524536132815	-498.4419555664064	994.437194824219	-821.306823730469	-497.1184082031251	990.966247558594	-763.8712768554689	-262.6423034667969	784.9072875976565	-1003.007995605469	-191.9357147216797	741.9285888671876	-1001.083984375	-159.9752655029297	769.4494628906252	-974.1632080078127	-180.0445404052735	682.3699951171876	-999.9713134765627	-126.7315444946289	586.4774169921876	-995.8666992187502	-93.03464508056642	584.0401611328126	-869.8242797851565	-19.51584815979004	504.7664184570314	-965.0832519531252	-51.97804260253908	445.4513549804689	-1019.47314453125	-14.42150688171387	456.929412841797	-997.3276367187502	19.37182807922364	382.8122253417969	-971.915710449219	19.6970500946045	221.3982849121094	-1001.555053710938	36.49339294433594	244.9002838134766	-917.5495605468752	-21.21836280822754	172.1767120361328	-961.5059814453127	178.0824432373047	221.6055908203126	-913.6184692382815	186.0955200195313	224.6832885742188	-962.5460205078127	160.8335876464844	191.0920715332032	-1014.556579589844	-363.3291015625001	752.5587768554689	-615.5247802734376	-314.0482177734376	709.3321533203126	-615.9312744140626	-283.4071350097657	722.5644531250001	-621.7594604492189	-320.9995117187501	625.2050781250001	-631.5179443359376	-302.1160888671876	476.1517944335939	-670.7279052734376	-254.9050445556641	485.0465698242189	-788.9083251953127	-261.8626403808594	336.4874572753907	-753.0627441406251	-327.2471618652344	260.9201660156251	-711.3275146484376	-289.3532104492188	254.1465454101563	-741.6715087890626	-305.6854858398438	218.8662261962891	-785.2667236328127	-395.4612731933595	109.5565185546875	-770.6839599609377	-357.1805114746094	139.6812133789063	-846.2036743164065	-446.0566711425782	94.54454040527345	-835.2210083007815	-241.6970825195313	57.02806091308595	-823.1201782226565	-247.0227355957032	54.45372772216798	-781.017517089844	-289.9148254394532	33.51819610595704	-733.9384155273439	-423.8563232421876	1610.191650390625	-677.1707153320314	-331.8630371093751	983.3919067382815	-916.9011840820315	
371	1.85	-318.6674804687501	1694.6328125	-761.6788940429689	-458.5116577148439	1570.254150390625	-830.9295654296877	-489.3375854492189	1454.737182617188	-773.8474121093752	-503.2446289062501	1131.163330078125	-780.5762939453127	-344.0946960449219	1399.0029296875	-766.4832153320314	-371.8482666015626	1438.408325195313	-908.4673461914065	-222.8798065185547	1344.015625	-995.9375000000002	-193.9819335937501	1364.387451171875	-961.6485595703127	-155.4565124511719	1330.26513671875	-992.4050292968752	-76.02136230468751	1312.294311523438	-978.3726806640627	-102.5239410400391	1241.584228515625	-935.245788574219	nan	nan	nan	156.9225006103516	1303.48681640625	-864.855163574219	164.0463256835938	1325.838500976563	-759.5564575195314	-386.589569091797	1427.972778320313	-624.4677124023439	-245.8694152832032	1329.760009765625	-523.1470336914064	-210.0834503173829	1349.230346679688	-551.0004272460939	-177.9741973876953	1312.535034179688	-514.5917358398439	-107.8992919921875	1300.90234375	-519.3178710937501	-110.4553527832032	1229.80419921875	-551.3724365234376	101.9714813232422	1317.17333984375	-704.8838500976564	125.5368347167969	1321.823852539063	-630.3709716796876	178.7025451660157	1345.004638671875	-733.0380249023439	-332.5177917480469	963.9700317382815	-664.5994262695314	-494.0456542968751	1023.888488769531	-791.5046997070315	-498.8429565429689	993.9743652343752	-821.4151611328127	-497.560028076172	990.5397949218752	-764.0361328125001	-262.7043762207032	784.4617919921877	-1003.02587890625	-192.1892700195313	741.6650390625001	-1001.083923339844	-160.2349090576172	769.147644042969	-974.1289062500002	-180.2270812988282	682.0285034179689	-1000.073425292969	-127.0257186889649	586.3582153320314	-995.8243408203127	-93.20159912109376	583.8607177734376	-869.726013183594	-19.64443969726563	504.5118408203126	-964.9143676757815	-52.14955520629884	445.1939392089845	-1019.327514648438	-14.52191925048828	456.6588439941407	-997.1483154296877	19.26352882385254	382.5488891601563	-971.5186157226565	19.49831199645996	221.2010498046876	-1001.357849121094	36.20172882080079	244.6829986572266	-917.3422851562502	-21.68551635742188	172.0188293457032	-961.3409423828127	177.7934722900391	221.3657836914063	-913.1156005859377	185.8740844726563	224.2400512695313	-962.0776977539065	160.6735076904297	190.6763305664063	-1013.956237792969	-363.6134338378907	752.0413208007814	-615.5743408203126	-314.1348571777344	708.9625854492189	-615.7155761718751	-283.5104980468751	722.2813720703126	-621.6435546875001	-320.8627624511719	624.9661254882814	-631.3146972656251	-301.6412048339844	475.7562561035157	-670.4716796875001	-254.3397369384766	484.8053588867189	-788.7839355468752	-261.4705505371094	336.2578125000001	-753.0559692382814	-326.7278747558594	260.5817565917969	-711.2671508789064	-289.0480651855469	253.9369354248047	-741.6339111328126	-305.4971618652344	218.7006378173829	-785.3300781250002	-395.432098388672	109.5571517944336	-770.6950683593752	-357.0945434570313	139.6753997802735	-846.1951293945315	-446.0689392089845	94.54652404785158	-835.1928710937502	-241.7193756103516	57.02515411376955	-823.125427246094	-247.0426788330079	54.4714698791504	-781.044372558594	-289.9133911132813	33.52013397216798	-733.9443969726564	-423.657684326172	1609.674682617188	-677.0819702148439	-332.1682739257813	983.0669555664065	-916.9800415039065	
372	1.855	-318.3739013671876	1694.032836914063	-761.6528320312501	-458.2001037597657	1569.687744140625	-831.0128173828127	-489.1143798828126	1454.491577148438	-773.8682250976565	-503.4046325683595	1130.856079101563	-780.6260375976565	-343.9190368652344	1398.381591796875	-766.4542236328126	-371.6723022460938	1437.917724609375	-908.3431396484377	-222.6924743652344	1343.536987304688	-995.8548583984377	-193.3653869628907	1363.8525390625	-961.3741455078127	-155.385986328125	1329.981201171875	-992.422790527344	-75.70784759521486	1312.015869140625	-978.3640747070315	-102.2878189086914	1241.246215820313	-935.1097412109377	nan	nan	nan	157.0614929199219	1303.256103515625	-864.7351684570315	164.1634063720703	1325.569458007813	-759.5592041015626	-386.3697509765626	1427.541748046875	-624.5054321289064	-245.6812438964844	1329.449096679688	-523.2177124023439	-210.0003356933594	1348.829833984375	-551.0388183593751	-177.8074035644532	1312.303100585938	-514.5816650390626	-107.7443313598633	1300.676391601563	-519.3563842773439	-110.3099517822266	1229.542114257813	-551.2414550781251	102.1741409301758	1316.899658203125	-705.0733642578126	125.6143493652344	1321.50146484375	-630.3449096679689	179.0605621337891	1344.87744140625	-732.7912597656251	-333.1467590332032	963.2944946289065	-664.7101440429689	-494.5560607910157	1023.430236816406	-791.6190185546877	-499.2469787597657	993.5420532226565	-821.5291137695315	-498.0052795410157	990.1271972656252	-764.0728759765626	-262.8756103515626	784.0274047851565	-1003.119750976563	-192.2740631103516	741.3091430664064	-1001.159057617188	-160.5488739013672	768.8618164062502	-974.1632080078127	-180.4319152832032	681.8411254882814	-1000.092041015625	-127.0252380371094	586.0982055664064	-995.737731933594	-93.40113067626955	583.6409912109376	-869.660339355469	-19.76931953430176	504.2535705566407	-964.7061767578127	-52.28241348266603	444.8413391113282	-1019.124328613281	-14.67090034484864	456.3911132812501	-996.9360961914065	18.96154975891114	382.3126525878907	-971.386413574219	19.41772079467774	220.858383178711	-1001.121765136719	35.87738800048829	244.3766174316407	-917.0879516601565	-22.06622695922852	171.7977447509766	-961.133483886719	177.432846069336	220.9188995361329	-912.6959228515627	185.5397033691407	223.8177337646485	-961.4588012695315	160.519271850586	190.3367767333985	-1013.570739746094	-363.8861389160157	751.4987182617189	-615.6273193359376	-314.2224426269532	708.6041259765626	-615.7061767578126	-283.7374572753907	721.9156494140626	-621.4291992187501	-320.7445678710938	624.5918579101564	-631.1181030273439	-301.0476074218751	475.4346008300782	-670.1700439453126	-253.7969207763672	484.654754638672	-788.497497558594	-260.9602661132813	336.0780334472657	-752.9682006835939	-326.0468750000001	260.6038513183594	-711.1330566406251	-288.7021179199219	253.6853790283204	-741.5917358398439	-305.2284240722657	218.6194915771485	-785.2566528320315	-395.4060974121095	109.5657272338867	-770.6580200195315	-357.2127685546876	139.8318634033203	-846.2364501953127	-446.0830688476564	94.5260696411133	-835.2083740234377	-241.6941070556641	57.01811981201173	-823.1279907226565	-247.0280456542969	54.51153564453126	-781.0169677734377	-289.9181213378907	33.51981735229493	-733.9542236328126	-423.3106384277345	1609.42822265625	-676.9769287109376	-332.7290344238282	982.4975585937502	-916.9705810546877	
